%FSLAX34Y34*%
%MOMM*%
%LNSOLDERMASK_TOP*%
G71*
G01*
%ADD10R, 1.55X0.60*%
%ADD11R, 2.10X2.10*%
%ADD12C, 2.60*%
%ADD13R, 1.10X2.20*%
%ADD14R, 1.20X0.50*%
%ADD15R, 0.50X1.20*%
%ADD16R, 1.07X1.80*%
%ADD17R, 1.80X1.10*%
%ADD18R, 1.40X1.60*%
%ADD19R, 1.10X1.60*%
%ADD20R, 3.63X2.42*%
%ADD21R, 1.20X1.70*%
%ADD22R, 3.50X1.70*%
%ADD23R, 1.80X1.07*%
%ADD24R, 2.20X1.20*%
%LPD*%
X460000Y143200D02*
G54D10*
D03*
X460000Y149700D02*
G54D10*
D03*
X460000Y156200D02*
G54D10*
D03*
X460000Y162700D02*
G54D10*
D03*
X460000Y169200D02*
G54D10*
D03*
X485500Y117200D02*
G54D11*
D03*
X485500Y195200D02*
G54D11*
D03*
X84000Y455000D02*
G54D12*
D03*
X84000Y429600D02*
G54D12*
D03*
X109400Y442300D02*
G54D12*
D03*
X109400Y416900D02*
G54D12*
D03*
X84000Y340000D02*
G54D12*
D03*
X84000Y314600D02*
G54D12*
D03*
X109400Y327300D02*
G54D12*
D03*
X109400Y301900D02*
G54D12*
D03*
X417600Y306000D02*
G54D12*
D03*
X417600Y331400D02*
G54D12*
D03*
X392200Y318700D02*
G54D12*
D03*
X392200Y344100D02*
G54D12*
D03*
X417600Y421000D02*
G54D12*
D03*
X417600Y446400D02*
G54D12*
D03*
X392200Y433700D02*
G54D12*
D03*
X392200Y459100D02*
G54D12*
D03*
X213000Y297500D02*
G54D13*
D03*
X213000Y426500D02*
G54D13*
D03*
X233000Y297500D02*
G54D13*
D03*
X233000Y426500D02*
G54D13*
D03*
X253000Y297500D02*
G54D13*
D03*
X253000Y426500D02*
G54D13*
D03*
X273000Y297500D02*
G54D13*
D03*
X273000Y426500D02*
G54D13*
D03*
X293000Y297500D02*
G54D13*
D03*
X293000Y426500D02*
G54D13*
D03*
X313000Y297500D02*
G54D13*
D03*
X313000Y426500D02*
G54D13*
D03*
X333000Y297500D02*
G54D13*
D03*
X333000Y426500D02*
G54D13*
D03*
X319709Y199242D02*
G54D14*
D03*
X269709Y199242D02*
G54D14*
D03*
X319708Y204242D02*
G54D14*
D03*
X269709Y204242D02*
G54D14*
D03*
X319708Y209242D02*
G54D14*
D03*
X269709Y209242D02*
G54D14*
D03*
X319709Y214242D02*
G54D14*
D03*
X269709Y214242D02*
G54D14*
D03*
X319709Y219242D02*
G54D14*
D03*
X269709Y219242D02*
G54D14*
D03*
X319708Y224242D02*
G54D14*
D03*
X269709Y224242D02*
G54D14*
D03*
X319709Y229242D02*
G54D14*
D03*
X269708Y229242D02*
G54D14*
D03*
X309708Y189242D02*
G54D15*
D03*
G36*
X307208Y245242D02*
X312208Y245242D01*
X312209Y233242D01*
X307209Y233242D01*
X307208Y245242D01*
G37*
X304709Y189242D02*
G54D15*
D03*
X304708Y239242D02*
G54D15*
D03*
X299708Y189242D02*
G54D15*
D03*
G36*
X297208Y245242D02*
X302208Y245242D01*
X302209Y233242D01*
X297209Y233242D01*
X297208Y245242D01*
G37*
X294709Y189242D02*
G54D15*
D03*
X294709Y239242D02*
G54D15*
D03*
X289710Y189240D02*
G54D15*
D03*
X289708Y239242D02*
G54D15*
D03*
X284708Y189242D02*
G54D15*
D03*
X284708Y239242D02*
G54D15*
D03*
X279708Y189242D02*
G54D15*
D03*
X279708Y239242D02*
G54D15*
D03*
X456100Y247855D02*
G54D16*
D03*
X425705Y247850D02*
G54D16*
D03*
X456400Y220155D02*
G54D16*
D03*
X426005Y220150D02*
G54D16*
D03*
X181000Y282000D02*
G54D17*
D03*
X181000Y250000D02*
G54D17*
D03*
X396000Y250000D02*
G54D17*
D03*
X396000Y218000D02*
G54D17*
D03*
X365000Y250000D02*
G54D17*
D03*
X365000Y218000D02*
G54D17*
D03*
X361300Y119400D02*
G54D18*
D03*
G36*
X353800Y149400D02*
X364800Y149400D01*
X364800Y133400D01*
X353800Y133400D01*
X353800Y149400D01*
G37*
X378300Y119400D02*
G54D19*
D03*
G36*
X372800Y149400D02*
X383800Y149400D01*
X383800Y133400D01*
X372800Y133400D01*
X372800Y149400D01*
G37*
X136694Y184872D02*
G54D20*
D03*
X136690Y127868D02*
G54D20*
D03*
X185310Y124056D02*
G54D21*
D03*
X208310Y124056D02*
G54D21*
D03*
G36*
X225310Y132556D02*
X237310Y132556D01*
X237310Y115556D01*
X225310Y115556D01*
X225310Y132556D01*
G37*
X208310Y187056D02*
G54D22*
D03*
X137389Y252272D02*
G54D23*
D03*
X137394Y221877D02*
G54D23*
D03*
X83610Y141390D02*
G54D12*
D03*
X83614Y166786D02*
G54D12*
D03*
X83000Y236000D02*
G54D17*
D03*
X83000Y204000D02*
G54D17*
D03*
X359700Y396700D02*
G54D12*
D03*
X359700Y371300D02*
G54D12*
D03*
X147700Y491900D02*
G54D24*
D03*
X207700Y491900D02*
G54D24*
D03*
X147700Y451900D02*
G54D24*
D03*
X207700Y451900D02*
G54D24*
D03*
M02*
