; Drill file
; Format: 3.3 (000.000)
M48
METRIC
T01C0.55
T02C0.6
T03C0.9
T04C3.0
%
G05
G90
T01
X046500Y013620
X046500Y017620
T02
X020600Y022200
X023260Y027440
X025260Y027440
X027260Y027440
X029260Y027440
X031260Y027440
X033260Y027440
X038900Y019200
X038950Y016550
X036700Y016020
X043300Y013300
X026000Y012300
X025280Y045190
X027280Y045190
X029300Y045180
X029280Y048610
T03
X008360Y014140
X008360Y016680
X010940Y030190
X010940Y032730
X008400Y034000
X008400Y031460
X010940Y041690
X010940Y044230
X008400Y045500
X008400Y042960
X035970Y039670
X035970Y037130
X039220Y034410
X039220Y031870
X041760Y030600
X041760Y033140
X041760Y042100
X041760Y044640
X039220Y043370
X039220Y045910
T04
X002330Y028350
X002330Y036150
X002330Y039850
X002330Y047650
X047830Y047750
X047830Y039950
X047830Y036250
X047830Y028450
M30
